<svg enable-background="new 0 0 256 256" viewBox="0 0 256 256" xmlns="http://www.w3.org/2000/svg"><path d="m0 0h256v256h-256z" fill="#00aa2d"/><path d="m116.25 159.48-33.23 38.69c-6.83 7.74-19.12-2.28-12.75-10.92l34.6-40.06c.46 0 2.28-.46 2.73 0l-35.05 40.51c-2.28 2.28-2.28 5.01-.91 6.83.46.91.91 1.37 1.37 2.28.46.46 1.37.91 2.28 1.37 2.28.46 4.55 0 6.83-2.28l34.14-40.06c-.01.9.44 2.72-.01 3.64zm13.65-20.94 43.7 49.62c4.55 5.01-2.73 11.84-7.28 6.37l-41.88-49.16zm.91 20.94 33.23 38.69c6.37 7.28 19.12-2.28 12.75-10.92l-34.6-40.06c-.46 0-2.28-.46-2.73 0l35.05 40.51c2.28 2.28 2.28 5.01.91 6.83-.46.91-.91 1.37-1.37 2.28-.46.46-1.37.91-2.28 1.37-2.28.46-4.55 0-6.83-2.28l-34.14-40.06c-.44.9-.9 2.72.01 3.64zm-8.65-30.05-64.18-74.2c-7.28 14.11 14.57 45.98 28.22 62.82 3.19 4.1 6.83 9.1 10.47 12.75 4.1 4.1 11.84 3.64 14.57.91l4.55 5.01.91.91 6.37-6.83zm12.29-10.92-61 70.1c-4.55 5.01 2.73 11.84 7.28 6.37l60.54-70.56c7.74 6.37 17.75-.46 20.03-3.19l35.96-42.33c2.28-2.73 2.73-6.37 1.82-9.56l-27.77 31.41-3.64-2.28 29.13-32.77-.46-.46-2.73-2.28-29.57 33.24-3.19-2.73 30.04-33.68-2.73-2.28c0-.46-.46-.46-.91-.46l-29.59 33.23-2.28-3.64 28.22-31.41c-3.19-.46-6.83.46-9.1 3.19l-36.87 41.42c-2.27 2.74-8.64 12.29-3.18 18.67z" fill="#fff"/></svg>